<svg width="214" height="78" viewBox="0 0 214 78" fill="none" xmlns="http://www.w3.org/2000/svg">
<path d="M46.8184 46.6289C46.8184 44.6836 45.752 43.0195 43.6192 41.6367C43.3145 41.4727 42.084 40.8164 39.9278 39.668C37.959 38.6367 36.7286 37.6172 36.2364 36.6094C36.002 36.1172 35.8848 35.6016 35.8848 35.0625C35.8848 33.6797 36.5528 32.7656 37.8887 32.3203C38.334 32.1797 38.8028 32.1094 39.295 32.1094C41.2169 32.1094 42.6583 32.8359 43.6192 34.2891C44.2051 35.2031 44.5098 36.293 44.5333 37.5586H45.9044V31.1953C45.2481 31.1953 44.8614 31.418 44.7442 31.8633C44.7208 32.0273 44.709 32.2148 44.709 32.4258C42.7637 31.5117 40.7129 31.0547 38.5567 31.0547C35.7208 31.0547 33.5879 31.793 32.1583 33.2695C31.2442 34.2305 30.7872 35.3672 30.7872 36.6797C30.7872 38.625 31.9004 40.2891 34.127 41.6719C34.4083 41.8594 35.6739 42.5273 37.9239 43.6758C39.9395 44.7305 41.1934 45.75 41.6856 46.7344C41.8965 47.2031 42.002 47.6836 42.002 48.1758C42.002 49.8633 41.252 50.9883 39.752 51.5508C39.2129 51.7383 38.6153 51.832 37.959 51.832C35.4747 51.832 33.7286 50.6953 32.7208 48.4219C32.2989 47.4609 32.0411 46.3594 31.9473 45.1172H30.5762V52.5703C31.209 52.5703 31.584 52.3828 31.7012 52.0078C31.7481 51.7734 31.7715 51.457 31.7715 51.0586C33.5762 52.2539 35.7559 52.8516 38.3106 52.8516C41.2872 52.8516 43.5723 52.0898 45.1661 50.5664C46.2676 49.4883 46.8184 48.1758 46.8184 46.6289ZM48.7872 38.4727H51.2129V47.2617C51.2129 50.6602 52.6192 52.5234 55.4317 52.8516C55.7129 52.875 55.9942 52.8867 56.2754 52.8867C58.0801 52.8867 59.3223 52.3008 60.002 51.1289C60.3301 50.543 60.5879 49.7695 60.7754 48.8086L59.8262 48.668C59.3575 50.5664 58.6661 51.6094 57.752 51.7969C57.6114 51.8203 57.4708 51.832 57.3301 51.832C56.4629 51.832 55.9356 51.2227 55.7481 50.0039C55.7012 49.7227 55.6778 49.4297 55.6778 49.125V38.4727H60.3184V37.5586H55.6778V33.4805L51.2129 34.2188V37.5586H48.7872V38.4727ZM74.5919 52.8516C76.3028 52.8516 77.3692 52.2305 77.7911 50.9883C77.9317 50.5195 78.0372 49.9219 78.1075 49.1953L77.1934 49.1602C77.0528 50.7773 76.6426 51.5977 75.9629 51.6211C75.4473 51.5742 75.1895 50.9883 75.1895 49.8633V42.5156C75.1895 39.5859 73.8301 37.7812 71.1114 37.1016C70.4083 36.9375 69.6465 36.8555 68.8262 36.8555C65.6387 36.8555 63.6348 37.5469 62.8145 38.9297C62.6036 39.2812 62.4981 39.6562 62.4981 40.0547C62.4981 40.9688 62.9317 41.543 63.7989 41.7773C64.0098 41.8477 64.2325 41.8828 64.4669 41.8828C65.4747 41.8828 66.1544 41.3906 66.5059 40.4062C66.5528 40.2656 66.6231 40.0312 66.7169 39.7031C66.9747 38.7656 67.3028 38.1797 67.7012 37.9453C67.959 37.8281 68.252 37.7695 68.5801 37.7695C69.6817 37.7695 70.3497 38.4375 70.584 39.7734C70.6778 40.2656 70.7247 40.8516 70.7247 41.5312V43.8164C64.7012 43.9336 61.6778 45.5273 61.6544 48.5977C61.6544 50.6836 62.5684 52.0195 64.3965 52.6055C64.9356 52.7695 65.5333 52.8516 66.1895 52.8516C68.1817 52.8516 69.6465 52.1016 70.584 50.6016C70.7715 50.2969 70.9239 49.9805 71.0411 49.6523C71.5333 51.668 72.7169 52.7344 74.5919 52.8516ZM68.0176 51.3398C66.8458 51.293 66.2481 50.25 66.2247 48.2109C66.2247 46.6641 66.8575 45.6562 68.1231 45.1875C68.8028 44.9766 69.67 44.8477 70.7247 44.8008V48.2109C70.2794 49.8516 69.5645 50.8594 68.5801 51.2344C68.3692 51.3047 68.1817 51.3398 68.0176 51.3398ZM89.4981 52.8516C91.795 52.8516 93.6348 51.9844 95.0176 50.25C96.2364 48.7266 96.8458 46.793 96.8458 44.4492C96.8458 41.4023 95.8965 39.2109 93.9981 37.875C93.0137 37.1953 91.9239 36.8555 90.7286 36.8555C88.3145 36.8789 86.4981 38.0742 85.2794 40.4414V29.6484H78.8106V30.5977H80.8145V49.7227C80.8145 50.7305 80.4278 51.3164 79.6544 51.4805C79.3965 51.5273 79.1153 51.5508 78.8106 51.5508V52.5H84.1895L84.4708 50.0391C85.7129 51.8906 87.3887 52.8281 89.4981 52.8516ZM89.0059 38.543C91.0215 38.5898 92.0294 40.7227 92.0294 44.9414C92.0059 49.5586 90.9161 51.8789 88.7598 51.9023C87.2364 51.9023 86.2051 50.8945 85.6661 48.8789C85.4083 47.9414 85.2794 46.8516 85.2794 45.6094C85.2794 42.3984 85.959 40.2422 87.3184 39.1406C87.834 38.7422 88.3965 38.543 89.0059 38.543Z" fill="#ED3F3F"/>
<path d="M131.65 40.3887V40.7227C131.627 41.707 131.522 42.7266 131.334 43.7812C131.158 44.8359 130.906 45.8906 130.578 46.9453C130.25 48 129.857 49.043 129.4 50.0742C128.943 51.1055 128.428 52.0898 127.854 53.0273C127.291 53.9766 126.682 54.8613 126.025 55.6816C125.369 56.5137 124.678 57.2461 123.951 57.8789L121.332 56.3672C121.742 55.6758 122.111 54.9199 122.44 54.0996C122.779 53.291 123.084 52.4414 123.354 51.5508C123.623 50.6602 123.852 49.7461 124.039 48.8086C124.238 47.8711 124.402 46.9395 124.531 46.0137C124.66 45.0879 124.754 44.1797 124.813 43.2891C124.883 42.3867 124.918 41.5312 124.918 40.7227C124.918 40.0898 124.912 39.375 124.9 38.5781C124.9 37.7695 124.854 36.9492 124.76 36.1172C124.678 35.2852 124.537 34.4766 124.338 33.6914C124.139 32.8945 123.84 32.1855 123.441 31.5645C123.055 30.9434 122.551 30.4453 121.93 30.0703C121.32 29.6953 120.559 29.5078 119.645 29.5078C118.836 29.5078 118.139 29.6484 117.553 29.9297C116.979 30.1992 116.486 30.5684 116.076 31.0371C115.678 31.4941 115.356 32.0273 115.109 32.6367C114.875 33.2461 114.688 33.8906 114.547 34.5703C114.418 35.2383 114.33 35.918 114.283 36.6094C114.248 37.2891 114.231 37.9336 114.231 38.543V43.4473H121.807V46.3477H114.231V52.5H107.252V39.6328C107.252 37.793 107.545 36.082 108.131 34.5C108.717 32.918 109.543 31.5469 110.609 30.3867C111.688 29.2148 112.977 28.3008 114.477 27.6445C115.988 26.9766 117.67 26.6426 119.522 26.6426C120.775 26.6426 121.947 26.8242 123.037 27.1875C124.139 27.5391 125.141 28.0312 126.043 28.6641C126.945 29.2852 127.748 30.0293 128.451 30.8965C129.166 31.752 129.758 32.6895 130.227 33.709C130.707 34.7285 131.07 35.8066 131.316 36.9434C131.563 38.0801 131.674 39.2285 131.65 40.3887ZM143.182 52.5H136.203V27.1875H148.648C149.82 27.1875 150.951 27.3281 152.041 27.6094C153.131 27.8789 154.092 28.3125 154.924 28.9102C155.768 29.4961 156.436 30.2578 156.928 31.1953C157.432 32.1328 157.684 33.2695 157.684 34.6055C157.684 35.6484 157.461 36.6328 157.016 37.5586C156.582 38.4727 155.996 39.293 155.258 40.0195C154.531 40.7344 153.693 41.332 152.744 41.8125C151.795 42.2812 150.811 42.5918 149.791 42.7441C150.248 43.5176 150.723 44.25 151.215 44.9414C151.719 45.6328 152.223 46.2832 152.727 46.8926C153.242 47.4902 153.752 48.0469 154.256 48.5625C154.76 49.0664 155.24 49.5293 155.697 49.9512C156.775 50.9355 157.842 51.7852 158.897 52.5H150.195C149.492 51.832 148.824 51.0293 148.191 50.0918C147.652 49.2949 147.107 48.3105 146.557 47.1387C146.018 45.9551 145.602 44.5898 145.309 43.043H143.182V52.5ZM150.6 34.6055C150.6 32.9062 150.184 31.6582 149.352 30.8613C148.531 30.0645 147.295 29.666 145.643 29.666H143.182V40.6523H145.643C146.522 40.6523 147.272 40.4883 147.893 40.1602C148.525 39.8203 149.041 39.375 149.44 38.8242C149.838 38.2617 150.131 37.6172 150.318 36.8906C150.506 36.1641 150.6 35.4023 150.6 34.6055ZM173.398 52.5H166.42V30.4219H159.529V27.1875H180.289V30.4219H173.398V52.5ZM204.371 44.7656C204.371 45.8555 204.231 46.8164 203.949 47.6484C203.68 48.4805 203.293 49.2012 202.789 49.8105C202.297 50.4199 201.711 50.9297 201.031 51.3398C200.352 51.75 199.607 52.0781 198.799 52.3242C198.002 52.5703 197.152 52.7461 196.25 52.8516C195.359 52.957 194.451 53.0098 193.525 53.0098C192.307 53.0098 191.182 52.916 190.15 52.7285C189.119 52.5527 188.147 52.2715 187.232 51.8848C186.33 51.4863 185.457 50.9766 184.613 50.3555C183.781 49.7344 182.949 48.9785 182.117 48.0879L185.703 44.4492C186.031 45.2578 186.482 46.0078 187.057 46.6992C187.631 47.3789 188.258 47.9648 188.938 48.457C189.629 48.9492 190.344 49.3359 191.082 49.6172C191.82 49.8984 192.518 50.0391 193.174 50.0391C193.947 50.0391 194.674 49.9863 195.354 49.8809C196.033 49.7637 196.625 49.5762 197.129 49.3184C197.633 49.0605 198.025 48.7207 198.307 48.2988C198.6 47.8652 198.746 47.3262 198.746 46.6816C198.746 46.1895 198.635 45.7676 198.412 45.416C198.19 45.0645 197.897 44.7656 197.533 44.5195C197.182 44.2617 196.777 44.0449 196.32 43.8691C195.863 43.6934 195.395 43.5469 194.914 43.4297C194.445 43.3008 193.982 43.1895 193.525 43.0957C193.068 42.9902 192.664 42.8848 192.313 42.7793C191.621 42.5801 190.9 42.3691 190.15 42.1465C189.4 41.9121 188.662 41.6484 187.936 41.3555C187.209 41.0625 186.518 40.7285 185.861 40.3535C185.217 39.9668 184.648 39.5156 184.156 39C183.664 38.4727 183.272 37.8691 182.979 37.1895C182.686 36.498 182.539 35.707 182.539 34.8164C182.539 33.75 182.668 32.8066 182.926 31.9863C183.195 31.1543 183.57 30.4336 184.051 29.8242C184.531 29.2148 185.1 28.7051 185.756 28.2949C186.412 27.873 187.133 27.5391 187.918 27.293C188.703 27.0352 189.535 26.8535 190.414 26.748C191.305 26.6309 192.213 26.5723 193.139 26.5723C194.404 26.5723 195.553 26.6895 196.584 26.9238C197.627 27.1582 198.588 27.4922 199.467 27.9258C200.346 28.3594 201.148 28.8809 201.875 29.4902C202.613 30.0879 203.305 30.7559 203.949 31.4941L200.363 35.1328C200.082 34.2891 199.69 33.5273 199.186 32.8477C198.693 32.168 198.143 31.5879 197.533 31.1074C196.924 30.6152 196.285 30.2402 195.617 29.9824C194.949 29.7129 194.305 29.5781 193.684 29.5781C192.875 29.5781 192.131 29.6367 191.451 29.7539C190.772 29.8594 190.186 30.041 189.693 30.2988C189.213 30.5449 188.838 30.8848 188.568 31.3184C188.299 31.7402 188.164 32.2676 188.164 32.9004C188.164 33.4043 188.264 33.832 188.463 34.1836C188.662 34.5352 188.926 34.834 189.254 35.0801C189.594 35.3262 189.975 35.5312 190.397 35.6953C190.818 35.8477 191.252 35.9824 191.697 36.0996C192.154 36.2168 192.6 36.3223 193.033 36.416C193.479 36.498 193.883 36.5918 194.246 36.6973C194.949 36.8965 195.688 37.1074 196.461 37.3301C197.234 37.5527 197.996 37.8164 198.746 38.1211C199.496 38.4141 200.211 38.7539 200.891 39.1406C201.57 39.5273 202.168 39.9902 202.684 40.5293C203.199 41.0566 203.609 41.6719 203.914 42.375C204.219 43.0664 204.371 43.8633 204.371 44.7656Z" fill="black"/>
<path d="M12.3967 53C17.9196 53 22.3967 48.5228 22.3967 43C22.3967 37.4772 17.9196 33 12.3967 33C6.87388 33 2.39673 37.4772 2.39673 43C2.39673 48.5228 6.87388 53 12.3967 53Z" stroke="black" stroke-width="2" stroke-linecap="round" stroke-linejoin="round"/>
<path d="M13.0318 46C14.7938 46 16.2223 44.6569 16.2223 43C16.2223 41.3431 14.7938 40 13.0318 40C11.2697 40 9.84131 41.3431 9.84131 43C9.84131 44.6569 11.2697 46 13.0318 46Z" stroke="black" stroke-width="2" stroke-linecap="round" stroke-linejoin="round"/>
</svg>
